<svg width="241" height="241" viewBox="0 0 241 241" fill="none" xmlns="http://www.w3.org/2000/svg">
<path d="M111.614 46.8644C111.614 47.98 111.394 49.0847 110.967 50.1154C110.54 51.1461 109.914 52.0826 109.125 52.8714C108.336 53.6603 107.4 54.2861 106.369 54.713C105.339 55.1399 104.234 55.3596 103.118 55.3596C102.003 55.3596 100.898 55.1399 99.8673 54.713C98.8366 54.2861 97.9001 53.6603 97.1112 52.8714C96.3224 52.0826 95.6966 51.1461 95.2697 50.1154C94.8428 49.0847 94.623 47.98 94.623 46.8644C94.623 44.6113 95.5181 42.4505 97.1112 40.8573C98.7044 39.2642 100.865 38.3691 103.118 38.3691C105.371 38.3691 107.532 39.2642 109.125 40.8573C110.719 42.4505 111.614 44.6113 111.614 46.8644ZM137.109 55.3596C139.362 55.3596 141.523 54.4646 143.116 52.8714C144.71 51.2783 145.605 49.1175 145.605 46.8644C145.605 44.6113 144.71 42.4505 143.116 40.8573C141.523 39.2642 139.362 38.3691 137.109 38.3691C134.856 38.3691 132.695 39.2642 131.102 40.8573C129.509 42.4505 128.614 44.6113 128.614 46.8644C128.614 49.1175 129.509 51.2783 131.102 52.8714C132.695 54.4646 134.856 55.3596 137.109 55.3596Z" fill="url(#paint0_linear_452_1363)"/>
<path fill-rule="evenodd" clip-rule="evenodd" d="M63.8051 4.71977C64.5045 4.01991 65.335 3.46473 66.249 3.08595C67.1631 2.70717 68.1428 2.51221 69.1322 2.51221C70.1217 2.51221 71.1014 2.70717 72.0154 3.08595C72.9295 3.46473 73.7599 4.01991 74.4593 4.71977L86.7905 17.0409C96.5522 11.2208 107.709 8.15644 119.074 8.1741H121.153C132.952 8.1741 143.988 11.4075 153.437 17.0409L165.768 4.71977C167.196 3.38945 169.084 2.66521 171.035 2.69963C172.986 2.73406 174.848 3.52446 176.228 4.90431C177.608 6.28417 178.398 8.14575 178.433 10.0969C178.467 12.048 177.743 13.9363 176.412 15.3639L165.457 26.3294C176.193 36.8786 182.795 50.9255 184.064 65.9237C187.325 64.8368 190.798 64.5405 194.196 65.0593C197.594 65.5781 200.82 66.8971 203.609 68.9076C206.397 70.9181 208.667 73.5625 210.233 76.6228C211.798 79.6831 212.614 83.0717 212.613 86.5091V137.491C212.615 140.908 211.809 144.278 210.262 147.324C208.715 150.371 206.469 153.01 203.709 155.024C200.948 157.039 197.751 158.373 194.377 158.917C191.004 159.461 187.549 159.201 184.295 158.156V176.884C184.295 186.052 179.827 194.166 172.958 199.197V213.958C172.958 220.462 170.375 226.699 165.776 231.297C161.177 235.896 154.94 238.48 148.436 238.48C141.933 238.48 135.696 235.896 131.097 231.297C126.498 226.699 123.915 220.462 123.915 213.958V204.499H116.313V213.968C116.313 220.472 113.729 226.709 109.131 231.308C104.532 235.906 98.2948 238.49 91.7913 238.49C85.2877 238.49 79.0505 235.906 74.4518 231.308C69.853 226.709 67.2695 220.472 67.2695 213.968V199.197C63.7557 196.634 60.8979 193.277 58.9293 189.399C56.9607 185.521 55.9373 181.233 55.9425 176.884V158.156C52.6886 159.201 49.234 159.461 45.8603 158.917C42.4866 158.373 39.2892 157.039 36.5288 155.024C33.7683 153.01 31.523 150.371 29.9757 147.324C28.4284 144.278 27.6229 140.908 27.625 137.491V86.5091C27.6242 83.0728 28.4399 79.6855 30.0048 76.6263C31.5698 73.567 33.8392 70.9233 36.6261 68.913C39.413 66.9028 42.6377 65.5834 46.0345 65.0637C49.4313 64.544 52.9029 64.8387 56.1634 65.9237C57.4337 50.9258 64.0349 36.8791 74.7706 26.3294L63.8051 15.3639C62.3948 13.9518 61.6026 12.0376 61.6026 10.0418C61.6026 8.04606 62.3948 6.13188 63.8051 4.71977ZM73.4953 79.8816C72.833 79.8869 72.1996 80.1538 71.7332 80.624C71.2667 81.0942 71.005 81.7297 71.005 82.3921V176.884C71.005 180.204 72.3205 183.39 74.6637 185.742C77.0068 188.095 80.1866 189.423 83.5069 189.436H156.721C160.041 189.423 163.221 188.095 165.564 185.742C167.907 183.39 169.223 180.204 169.223 176.884V82.3921C169.223 81.7297 168.961 81.0942 168.494 80.624C168.028 80.1538 167.395 79.8869 166.732 79.8816H73.4953ZM166.752 64.8191H168.791C167.216 53.3026 161.522 42.7463 152.764 35.1035C144.007 27.4607 132.777 23.2486 121.153 23.2466H119.074C107.451 23.2486 96.221 27.4607 87.4631 35.1035C78.7053 42.7463 73.012 53.3026 71.4368 64.8191H166.712H166.752ZM138.977 213.968V204.499H157.896V213.968C157.896 215.21 157.651 216.44 157.176 217.588C156.7 218.736 156.003 219.778 155.125 220.657C154.247 221.535 153.204 222.232 152.056 222.707C150.909 223.183 149.679 223.427 148.436 223.427C147.194 223.427 145.964 223.183 144.816 222.707C143.669 222.232 142.626 221.535 141.748 220.657C140.869 219.778 140.172 218.736 139.697 217.588C139.222 216.44 138.977 215.21 138.977 213.968ZM83.4868 204.499H101.251V213.968C101.251 216.477 100.254 218.883 98.48 220.657C96.706 222.431 94.3 223.427 91.7913 223.427C89.2825 223.427 86.8765 222.431 85.1026 220.657C83.3286 218.883 82.332 216.477 82.332 213.968V204.499H83.4868ZM190.923 144.128C189.168 144.128 187.486 143.433 186.243 142.194C185.001 140.956 184.3 139.275 184.295 137.521V86.479C184.299 84.7213 185.001 83.0372 186.247 81.7971C186.864 81.1831 187.595 80.6965 188.4 80.3653C189.205 80.0341 190.067 79.8646 190.938 79.8666C191.808 79.8686 192.669 80.0419 193.473 80.3768C194.276 80.7117 195.006 81.2016 195.62 81.8184C196.234 82.4352 196.72 83.1669 197.051 83.9718C197.383 84.7766 197.552 85.6388 197.55 86.5091V137.491C197.55 139.248 196.852 140.934 195.609 142.177C194.366 143.42 192.68 144.128 190.923 144.128ZM55.9325 86.4589C55.9271 84.7012 55.2238 83.0176 53.9771 81.7785C52.7304 80.5393 51.0426 79.8462 49.2849 79.8515C47.5272 79.8568 45.8435 80.5602 44.6044 81.8069C43.3653 83.0535 42.6721 84.7414 42.6775 86.4991V137.481C42.6708 139.238 43.3627 140.927 44.6009 142.174C45.8391 143.422 47.5221 144.127 49.2799 144.133C51.0376 144.14 52.726 143.448 53.9736 142.21C55.2212 140.972 55.9258 139.289 55.9325 137.531V86.4589Z" fill="url(#paint1_linear_452_1363)"/>
<defs>
<linearGradient id="paint0_linear_452_1363" x1="94.623" y1="47.9344" x2="145.605" y2="47.9344" gradientUnits="userSpaceOnUse">
<stop stop-color="#0040B9"/>
<stop offset="1" stop-color="#002481"/>
</linearGradient>
<linearGradient id="paint1_linear_452_1363" x1="27.625" y1="135.363" x2="212.613" y2="135.363" gradientUnits="userSpaceOnUse">
<stop stop-color="#0040B9"/>
<stop offset="1" stop-color="#002481"/>
</linearGradient>
</defs>
</svg>
