<svg width="23" height="16" viewBox="0 0 23 16" fill="none" xmlns="http://www.w3.org/2000/svg">
<path fill-rule="evenodd" clip-rule="evenodd" d="M8.83313 2.86283C9.15122 2.10737 9.33067 1.4212 9.35815 0.981598L7.86107 0.888031C7.84831 1.09216 7.73607 1.60292 7.45067 2.28075C7.17214 2.94227 6.74886 3.71397 6.15601 4.44576C4.97935 5.89821 3.14748 7.18534 0.40209 7.18534V7.42655V8.68534V8.92655C0.40218 8.92655 0.402271 8.92655 0.402361 8.92655V9.02407H1.67154C3.72663 9.35006 5.17093 10.4502 6.15601 11.6661C6.74886 12.3979 7.17214 13.1696 7.45067 13.8311C7.73607 14.509 7.84831 15.0197 7.86107 15.2239L9.35815 15.1303C9.33067 14.6907 9.15122 14.0045 8.83313 13.2491C8.50817 12.4773 8.01614 11.5793 7.32154 10.7219C6.83096 10.1163 6.23779 9.53006 5.53233 9.02407H22.4902V7.52407H4.85969C5.86881 6.93544 6.68228 6.17907 7.32154 5.38999C8.01614 4.53258 8.50817 3.63461 8.83313 2.86283Z" fill="url(#paint0_linear_167_909)"/>
<defs>
<linearGradient id="paint0_linear_167_909" x1="22.4902" y1="8.9588" x2="0.40209" y2="8.9588" gradientUnits="userSpaceOnUse">
<stop stop-color="#0040B9"/>
<stop offset="1" stop-color="#002481"/>
</linearGradient>
</defs>
</svg>
