<svg width="113" height="86" viewBox="0 0 113 86" fill="none" xmlns="http://www.w3.org/2000/svg">
<circle cx="4.38326" cy="82.2508" r="3.64107" transform="rotate(-90 4.38326 82.2508)" fill="#0D093E"/>
<circle cx="4.38326" cy="56.1426" r="3.64107" transform="rotate(-90 4.38326 56.1426)" fill="#0D093E"/>
<circle cx="4.38326" cy="30.0345" r="3.64107" transform="rotate(-90 4.38326 30.0345)" fill="#0D093E"/>
<circle cx="4.38326" cy="3.92655" r="3.64107" transform="rotate(-90 4.38326 3.92655)" fill="#0D093E"/>
<circle cx="30.4926" cy="82.2508" r="3.64107" transform="rotate(-90 30.4926 82.2508)" fill="#0D093E"/>
<circle cx="30.4926" cy="56.1426" r="3.64107" transform="rotate(-90 30.4926 56.1426)" fill="#0D093E"/>
<circle cx="30.4926" cy="30.0345" r="3.64107" transform="rotate(-90 30.4926 30.0345)" fill="#0D093E"/>
<circle cx="30.4926" cy="3.92655" r="3.64107" transform="rotate(-90 30.4926 3.92655)" fill="#0D093E"/>
<circle cx="56.5981" cy="82.2508" r="3.64107" transform="rotate(-90 56.5981 82.2508)" fill="#0D093E"/>
<circle cx="56.5981" cy="56.1426" r="3.64107" transform="rotate(-90 56.5981 56.1426)" fill="#0D093E"/>
<circle cx="56.5981" cy="30.0345" r="3.64107" transform="rotate(-90 56.5981 30.0345)" fill="#0D093E"/>
<circle cx="56.5981" cy="3.92655" r="3.64107" transform="rotate(-90 56.5981 3.92655)" fill="#0D093E"/>
<circle cx="82.7075" cy="82.2508" r="3.64107" transform="rotate(-90 82.7075 82.2508)" fill="#0D093E"/>
<circle cx="82.7075" cy="56.1426" r="3.64107" transform="rotate(-90 82.7075 56.1426)" fill="#0D093E"/>
<circle cx="82.7075" cy="30.0345" r="3.64107" transform="rotate(-90 82.7075 30.0345)" fill="#0D093E"/>
<circle cx="82.7075" cy="3.92655" r="3.64107" transform="rotate(-90 82.7075 3.92655)" fill="#0D093E"/>
<circle cx="108.813" cy="82.2508" r="3.64107" transform="rotate(-90 108.813 82.2508)" fill="#0D093E"/>
<circle cx="108.813" cy="56.1426" r="3.64107" transform="rotate(-90 108.813 56.1426)" fill="#0D093E"/>
<circle cx="108.813" cy="30.0345" r="3.64107" transform="rotate(-90 108.813 30.0345)" fill="#0D093E"/>
<circle cx="108.813" cy="3.92655" r="3.64107" transform="rotate(-90 108.813 3.92655)" fill="#0D093E"/>
</svg>
