<svg width="113" height="86" viewBox="0 0 113 86" fill="none" xmlns="http://www.w3.org/2000/svg">
<g clip-path="url(#clip0_432_923)">
<path d="M8.02432 82.2508C8.02432 80.2399 6.39416 78.6097 4.38326 78.6097C2.37235 78.6097 0.742188 80.2399 0.742188 82.2508C0.742188 84.2617 2.37235 85.8918 4.38326 85.8918C6.39416 85.8918 8.02432 84.2617 8.02432 82.2508Z" fill="#0040B9"/>
<path d="M8.02433 56.1426C8.02433 54.1317 6.39417 52.5016 4.38326 52.5016C2.37235 52.5016 0.742188 54.1317 0.742188 56.1426C0.742188 58.1535 2.37235 59.7837 4.38326 59.7837C6.39417 59.7837 8.02433 58.1535 8.02433 56.1426Z" fill="#0040B9"/>
<path d="M8.02433 30.0345C8.02433 28.0236 6.39416 26.3934 4.38326 26.3934C2.37235 26.3934 0.742188 28.0236 0.742188 30.0345C0.742188 32.0454 2.37235 33.6755 4.38326 33.6755C6.39416 33.6755 8.02433 32.0454 8.02433 30.0345Z" fill="#0040B9"/>
<path d="M8.02433 3.92656C8.02433 1.91565 6.39417 0.285487 4.38326 0.285487C2.37235 0.285487 0.742188 1.91565 0.742188 3.92656C0.742188 5.93746 2.37235 7.56763 4.38326 7.56763C6.39417 7.56763 8.02433 5.93746 8.02433 3.92656Z" fill="#0040B9"/>
<path d="M34.1337 82.2508C34.1337 80.2399 32.5035 78.6097 30.4926 78.6097C28.4817 78.6097 26.8516 80.2399 26.8516 82.2508C26.8516 84.2617 28.4817 85.8918 30.4926 85.8918C32.5035 85.8918 34.1337 84.2617 34.1337 82.2508Z" fill="#0040B9"/>
<path d="M34.1337 56.1426C34.1337 54.1317 32.5035 52.5016 30.4926 52.5016C28.4817 52.5016 26.8516 54.1317 26.8516 56.1426C26.8516 58.1535 28.4817 59.7837 30.4926 59.7837C32.5035 59.7837 34.1337 58.1535 34.1337 56.1426Z" fill="#0040B9"/>
<path d="M34.1337 30.0345C34.1337 28.0236 32.5035 26.3934 30.4926 26.3934C28.4817 26.3934 26.8516 28.0236 26.8516 30.0345C26.8516 32.0454 28.4817 33.6755 30.4926 33.6755C32.5035 33.6755 34.1337 32.0454 34.1337 30.0345Z" fill="#0040B9"/>
<path d="M34.1337 3.92656C34.1337 1.91565 32.5035 0.285486 30.4926 0.285486C28.4817 0.285486 26.8516 1.91565 26.8516 3.92656C26.8516 5.93746 28.4817 7.56763 30.4926 7.56763C32.5035 7.56763 34.1337 5.93746 34.1337 3.92656Z" fill="#0040B9"/>
<path d="M60.2392 82.2508C60.2392 80.2399 58.609 78.6097 56.5981 78.6097C54.5872 78.6097 52.957 80.2399 52.957 82.2508C52.957 84.2617 54.5872 85.8918 56.5981 85.8918C58.609 85.8918 60.2392 84.2617 60.2392 82.2508Z" fill="#0040B9"/>
<path d="M60.2392 56.1426C60.2392 54.1317 58.609 52.5016 56.5981 52.5016C54.5872 52.5016 52.957 54.1317 52.957 56.1426C52.957 58.1535 54.5872 59.7837 56.5981 59.7837C58.609 59.7837 60.2392 58.1535 60.2392 56.1426Z" fill="#0040B9"/>
<path d="M60.2392 30.0345C60.2392 28.0236 58.609 26.3934 56.5981 26.3934C54.5872 26.3934 52.957 28.0236 52.957 30.0345C52.957 32.0454 54.5872 33.6755 56.5981 33.6755C58.609 33.6755 60.2392 32.0454 60.2392 30.0345Z" fill="#0040B9"/>
<path d="M60.2392 3.92656C60.2392 1.91565 58.609 0.285488 56.5981 0.285488C54.5872 0.285488 52.957 1.91565 52.957 3.92656C52.957 5.93747 54.5872 7.56763 56.5981 7.56763C58.609 7.56763 60.2392 5.93747 60.2392 3.92656Z" fill="#0040B9"/>
<path d="M86.3485 82.2508C86.3485 80.2399 84.7184 78.6097 82.7075 78.6097C80.6966 78.6097 79.0664 80.2399 79.0664 82.2508C79.0664 84.2617 80.6966 85.8918 82.7075 85.8918C84.7184 85.8918 86.3485 84.2617 86.3485 82.2508Z" fill="#0040B9"/>
<path d="M86.3485 56.1426C86.3485 54.1317 84.7184 52.5015 82.7075 52.5015C80.6966 52.5015 79.0664 54.1317 79.0664 56.1426C79.0664 58.1535 80.6966 59.7837 82.7075 59.7837C84.7184 59.7837 86.3485 58.1535 86.3485 56.1426Z" fill="#0040B9"/>
<path d="M86.3485 30.0345C86.3485 28.0236 84.7184 26.3934 82.7075 26.3934C80.6966 26.3934 79.0664 28.0236 79.0664 30.0345C79.0664 32.0454 80.6966 33.6755 82.7075 33.6755C84.7184 33.6755 86.3485 32.0454 86.3485 30.0345Z" fill="#0040B9"/>
<path d="M86.3485 3.92656C86.3485 1.91565 84.7184 0.285484 82.7075 0.285484C80.6966 0.285484 79.0664 1.91565 79.0664 3.92656C79.0664 5.93747 80.6966 7.56763 82.7075 7.56763C84.7184 7.56763 86.3485 5.93747 86.3485 3.92656Z" fill="#0040B9"/>
<path d="M112.454 82.2508C112.454 80.2399 110.824 78.6097 108.813 78.6097C106.802 78.6097 105.172 80.2399 105.172 82.2508C105.172 84.2617 106.802 85.8918 108.813 85.8918C110.824 85.8918 112.454 84.2617 112.454 82.2508Z" fill="#0040B9"/>
<path d="M112.454 56.1426C112.454 54.1317 110.824 52.5015 108.813 52.5015C106.802 52.5015 105.172 54.1317 105.172 56.1426C105.172 58.1535 106.802 59.7837 108.813 59.7837C110.824 59.7837 112.454 58.1535 112.454 56.1426Z" fill="#0040B9"/>
<path d="M112.454 30.0345C112.454 28.0236 110.824 26.3934 108.813 26.3934C106.802 26.3934 105.172 28.0236 105.172 30.0345C105.172 32.0454 106.802 33.6755 108.813 33.6755C110.824 33.6755 112.454 32.0454 112.454 30.0345Z" fill="#0040B9"/>
<path d="M112.454 3.92655C112.454 1.91564 110.824 0.285484 108.813 0.285484C106.802 0.285484 105.172 1.91564 105.172 3.92655C105.172 5.93746 106.802 7.56763 108.813 7.56763C110.824 7.56763 112.454 5.93746 112.454 3.92655Z" fill="#0040B9"/>
</g>
<defs>
<clipPath id="clip0_432_923">
<rect width="113" height="86" fill="white"/>
</clipPath>
</defs>
</svg>
