<svg width="77" height="72" viewBox="0 0 77 72" fill="none" xmlns="http://www.w3.org/2000/svg">
<circle cx="3.79521" cy="68.5456" r="3.01982" transform="rotate(-90 3.79521 68.5456)" fill="#023AA2"/>
<circle cx="3.79521" cy="46.8922" r="3.01982" transform="rotate(-90 3.79521 46.8922)" fill="#023AA2"/>
<circle cx="3.79521" cy="25.2387" r="3.01982" transform="rotate(-90 3.79521 25.2387)" fill="#023AA2"/>
<circle cx="3.79521" cy="3.58525" r="3.01982" transform="rotate(-90 3.79521 3.58525)" fill="#023AA2"/>
<circle cx="25.4476" cy="68.5456" r="3.01982" transform="rotate(-90 25.4476 68.5456)" fill="#023AA2"/>
<circle cx="25.4476" cy="46.8922" r="3.01982" transform="rotate(-90 25.4476 46.8922)" fill="#023AA2"/>
<circle cx="25.4476" cy="25.2387" r="3.01982" transform="rotate(-90 25.4476 25.2387)" fill="#023AA2"/>
<circle cx="25.4476" cy="3.58525" r="3.01982" transform="rotate(-90 25.4476 3.58525)" fill="#023AA2"/>
<circle cx="47.1019" cy="68.5456" r="3.01982" transform="rotate(-90 47.1019 68.5456)" fill="#023AA2"/>
<circle cx="47.1019" cy="46.8922" r="3.01982" transform="rotate(-90 47.1019 46.8922)" fill="#023AA2"/>
<circle cx="47.1019" cy="25.2387" r="3.01982" transform="rotate(-90 47.1019 25.2387)" fill="#023AA2"/>
<circle cx="47.1019" cy="3.58525" r="3.01982" transform="rotate(-90 47.1019 3.58525)" fill="#023AA2"/>
<circle cx="68.7542" cy="68.5456" r="3.01982" transform="rotate(-90 68.7542 68.5456)" fill="#023AA2"/>
<circle cx="68.7542" cy="46.8922" r="3.01982" transform="rotate(-90 68.7542 46.8922)" fill="#023AA2"/>
<circle cx="68.7542" cy="25.2387" r="3.01982" transform="rotate(-90 68.7542 25.2387)" fill="#023AA2"/>
<circle cx="68.7542" cy="3.58525" r="3.01982" transform="rotate(-90 68.7542 3.58525)" fill="#023AA2"/>
</svg>
