<svg width="20" height="14" viewBox="0 0 20 14" fill="none" xmlns="http://www.w3.org/2000/svg">
<path fill-rule="evenodd" clip-rule="evenodd" d="M12.1996 2.59171C11.9202 1.92807 11.7594 1.31859 11.7345 0.920228L13.2316 0.82666C13.2418 0.989543 13.3353 1.42362 13.5821 2.00962C13.8219 2.57931 14.1866 3.24404 14.6969 3.87402C15.7086 5.12283 17.2801 6.22695 19.6389 6.22695V6.43722V7.72695V7.93722C19.6388 7.93722 19.6386 7.93722 19.6385 7.93722V8.02249H18.5383C16.7785 8.30418 15.5423 9.24665 14.6969 10.2902C14.1866 10.9201 13.8219 11.5849 13.5821 12.1546C13.3353 12.7406 13.2418 13.1746 13.2316 13.3375L11.7345 13.2439C11.7594 12.8456 11.9202 12.2361 12.1996 11.5725C12.4859 10.8925 12.9193 10.1015 13.5314 9.34593C13.9088 8.88012 14.3552 8.42703 14.8764 8.02249H0.380859V6.52249H15.4129C14.6553 6.03274 14.0324 5.43671 13.5314 4.81824C12.9193 4.06265 12.4859 3.27166 12.1996 2.59171Z" fill="url(#paint0_linear_167_1102)"/>
<defs>
<linearGradient id="paint0_linear_167_1102" x1="0.380859" y1="7.87001" x2="19.6389" y2="7.87001" gradientUnits="userSpaceOnUse">
<stop stop-color="#0040B9"/>
<stop offset="1" stop-color="#002481"/>
</linearGradient>
</defs>
</svg>
