<svg width="115" height="116" viewBox="0 0 115 116" fill="none" xmlns="http://www.w3.org/2000/svg">
<path d="M0 5.29175H22.8275L25.439 14.8751H112.063L94.4965 67.5834H37.2792L34.8833 77.1667H105.417V86.7501H22.6167L28.5871 62.8445L15.5058 14.8751H0V5.29175ZM37.2025 58.0001H87.5869L98.7706 24.4584H28.0552L37.2025 58.0001ZM19.1667 101.125C19.1667 98.5834 20.1763 96.1459 21.9736 94.3486C23.7708 92.5514 26.2083 91.5417 28.75 91.5417C31.2917 91.5417 33.7292 92.5514 35.5264 94.3486C37.3237 96.1459 38.3333 98.5834 38.3333 101.125C38.3333 103.667 37.3237 106.104 35.5264 107.902C33.7292 109.699 31.2917 110.708 28.75 110.708C26.2083 110.708 23.7708 109.699 21.9736 107.902C20.1763 106.104 19.1667 103.667 19.1667 101.125ZM86.25 101.125C86.25 98.5834 87.2597 96.1459 89.0569 94.3486C90.8541 92.5514 93.2917 91.5417 95.8333 91.5417C98.375 91.5417 100.813 92.5514 102.61 94.3486C104.407 96.1459 105.417 98.5834 105.417 101.125C105.417 103.667 104.407 106.104 102.61 107.902C100.813 109.699 98.375 110.708 95.8333 110.708C93.2917 110.708 90.8541 109.699 89.0569 107.902C87.2597 106.104 86.25 103.667 86.25 101.125Z" fill="url(#paint0_linear_451_1357)"/>
<defs>
<linearGradient id="paint0_linear_451_1357" x1="-6.93828e-09" y1="64.6391" x2="112.063" y2="64.6391" gradientUnits="userSpaceOnUse">
<stop stop-color="#0040B9"/>
<stop offset="1" stop-color="#002481"/>
</linearGradient>
</defs>
</svg>
