<svg width="81" height="43" viewBox="0 0 81 43" fill="none" xmlns="http://www.w3.org/2000/svg">
<path d="M2.03711 18.9905L15.7811 6.72652C18.6985 4.12328 23.1828 4.41463 25.7388 7.37348L30.4041 12.774C33.221 16.0349 38.2872 16.0006 41.0598 12.7019L44.9151 8.11512C47.6402 4.87286 52.5979 4.77454 55.4495 7.90622L60.001 12.9049C62.9058 16.095 67.977 15.9234 70.6594 12.5442L79.0371 1.99048" stroke="#023AA2" stroke-width="5"/>
<path d="M2.03711 40.9905L15.7811 28.7265C18.6985 26.1233 23.1828 26.4146 25.7388 29.3735L30.4041 34.774C33.221 38.0349 38.2872 38.0006 41.0598 34.7019L44.9151 30.1151C47.6402 26.8729 52.5979 26.7745 55.4495 29.9062L60.001 34.9049C62.9058 38.095 67.977 37.9234 70.6594 34.5442L79.0371 23.9905" stroke="#023AA2" stroke-width="5"/>
</svg>
