<svg width="25" height="17" viewBox="0 0 25 17" fill="none" xmlns="http://www.w3.org/2000/svg">
<path d="M2.61187 0.218262H10.9446C11.3866 0.218262 11.8105 0.393845 12.1231 0.706384C12.4356 1.01892 12.6112 1.44282 12.6112 1.88481C12.6112 2.32681 12.4356 2.75071 12.1231 3.06325C11.8105 3.37579 11.3866 3.55137 10.9446 3.55137H2.61187C2.16987 3.55137 1.74597 3.37579 1.43343 3.06325C1.1209 2.75071 0.945313 2.32681 0.945312 1.88481C0.945313 1.44282 1.1209 1.01892 1.43343 0.706384C1.74597 0.393845 2.16987 0.218262 2.61187 0.218262ZM14.2777 13.5507H22.6105C23.0525 13.5507 23.4764 13.7263 23.7889 14.0388C24.1015 14.3513 24.2771 14.7752 24.2771 15.2172C24.2771 15.6592 24.1015 16.0831 23.7889 16.3957C23.4764 16.7082 23.0525 16.8838 22.6105 16.8838H14.2777C13.8357 16.8838 13.4118 16.7082 13.0993 16.3957C12.7868 16.0831 12.6112 15.6592 12.6112 15.2172C12.6112 14.7752 12.7868 14.3513 13.0993 14.0388C13.4118 13.7263 13.8357 13.5507 14.2777 13.5507ZM2.61187 6.88447H22.6105C23.0525 6.88447 23.4764 7.06006 23.7889 7.3726C24.1015 7.68514 24.2771 8.10903 24.2771 8.55103C24.2771 8.99302 24.1015 9.41692 23.7889 9.72946C23.4764 10.042 23.0525 10.2176 22.6105 10.2176H2.61187C2.16987 10.2176 1.74597 10.042 1.43343 9.72946C1.1209 9.41692 0.945313 8.99302 0.945312 8.55103C0.945313 8.10903 1.1209 7.68514 1.43343 7.3726C1.74597 7.06006 2.16987 6.88447 2.61187 6.88447Z" fill="white"/>
</svg>
