<svg width="249" height="251" viewBox="0 0 249 251" fill="none" xmlns="http://www.w3.org/2000/svg">
<path d="M222.321 0.8125H26.6786C11.9498 0.8125 0 12.7803 0 27.5312V223.469C0 238.22 11.9498 250.188 26.6786 250.188H222.321C237.05 250.188 249 238.22 249 223.469V27.5312C249 12.7803 237.05 0.8125 222.321 0.8125ZM70.5871 197.028C67.5301 202.372 60.6938 204.153 55.4136 201.092C50.0779 198.03 48.2993 191.184 51.3563 185.896L59.3042 172.146C68.2527 169.419 75.5893 171.534 81.3141 178.492L70.5871 197.028ZM147.788 167.025H46.6875C40.5737 167.025 35.5714 162.016 35.5714 155.893C35.5714 149.77 40.5737 144.76 46.6875 144.76H75.0335L111.383 81.748L99.9891 62.043C96.9321 56.6992 98.7663 49.9082 104.046 46.8467C109.382 43.7852 116.163 45.6221 119.22 50.9102L124.167 59.4824L129.113 50.9102C132.17 45.5664 139.006 43.7852 144.287 46.8467C149.622 49.9082 151.401 56.7549 148.344 62.043L100.656 144.76H135.171C146.399 144.76 152.679 157.952 147.788 167.025ZM202.313 167.025H186.194L197.088 185.896C200.145 191.239 198.311 198.03 193.031 201.092C187.695 204.153 180.914 202.316 177.857 197.028C159.571 165.355 145.898 141.531 136.728 125.723C127.446 109.58 134.06 93.4375 140.674 87.9824C147.955 100.618 158.849 119.544 173.411 144.76H202.313C208.426 144.76 213.429 149.77 213.429 155.893C213.429 162.071 208.426 167.025 202.313 167.025Z" fill="url(#paint0_linear_451_1344)"/>
<defs>
<linearGradient id="paint0_linear_451_1344" x1="-1.54167e-08" y1="141.205" x2="249" y2="141.205" gradientUnits="userSpaceOnUse">
<stop stop-color="#0040B9"/>
<stop offset="1" stop-color="#002481"/>
</linearGradient>
</defs>
</svg>
