<svg width="135" height="180" viewBox="0 0 135 180" fill="none" xmlns="http://www.w3.org/2000/svg">
<path d="M109.016 32.064H134.667V57.7152H109.016V32.064ZM109.016 70.5408H134.667V96.192H109.016V70.5408ZM70.5391 32.064H96.1903V57.7152H70.5391V32.064ZM70.5391 70.5408H96.1903V96.192H70.5391V70.5408Z" fill="white"/>
<path d="M54.5079 153.907C59.8204 153.907 64.1271 149.601 64.1271 144.288C64.1271 138.976 59.8204 134.669 54.5079 134.669C49.1953 134.669 44.8887 138.976 44.8887 144.288C44.8887 149.601 49.1953 153.907 54.5079 153.907Z" fill="white"/>
<path d="M96.1921 179.559H12.8256C9.42405 179.559 6.1618 178.207 3.75653 175.802C1.35127 173.397 0 170.134 0 166.733V12.8256C0 9.42405 1.35127 6.1618 3.75653 3.75653C6.1618 1.35127 9.42405 0 12.8256 0H96.1921V12.8256H12.8256V166.733H96.1921V115.43H109.018V166.733C109.018 170.134 107.666 173.397 105.261 175.802C102.856 178.207 99.5936 179.559 96.1921 179.559Z" fill="white"/>
</svg>
