<svg width="180" height="180" viewBox="0 0 180 180" fill="none" xmlns="http://www.w3.org/2000/svg">
<rect width="180" height="180" fill="white"/>
<path d="M130.016 32.064H155.667V57.7152H130.016V32.064ZM130.016 70.5408H155.667V96.192H130.016V70.5408ZM91.5391 32.064H117.19V57.7152H91.5391V32.064ZM91.5391 70.5408H117.19V96.192H91.5391V70.5408Z" fill="#0040B9"/>
<path d="M75.5079 153.907C80.8204 153.907 85.1271 149.601 85.1271 144.288C85.1271 138.976 80.8204 134.669 75.5079 134.669C70.1953 134.669 65.8887 138.976 65.8887 144.288C65.8887 149.601 70.1953 153.907 75.5079 153.907Z" fill="#0040B9"/>
<path d="M117.192 179.559H33.8256C30.424 179.559 27.1618 178.207 24.7565 175.802C22.3513 173.397 21 170.134 21 166.733V12.8256C21 9.42405 22.3513 6.1618 24.7565 3.75653C27.1618 1.35127 30.424 0 33.8256 0H117.192V12.8256H33.8256V166.733H117.192V115.43H130.018V166.733C130.018 170.134 128.666 173.397 126.261 175.802C123.856 178.207 120.594 179.559 117.192 179.559Z" fill="#0040B9"/>
</svg>
