<svg width="71" height="49" viewBox="0 0 71 49" fill="none" xmlns="http://www.w3.org/2000/svg">
<path d="M20.0387 1.35805C21.9545 0.0443802 24.6723 0.39935 26.1092 2.15088C27.5461 3.90246 27.1576 6.38732 25.242 7.70103C18.4606 12.3512 14.5712 16.8723 12.3513 20.8216C13.5612 20.5378 14.8294 20.3867 16.1362 20.3867C24.5178 20.3867 31.3124 26.5989 31.3124 34.262C31.3124 41.9251 24.5178 48.1373 16.1362 48.1373C7.8385 48.1373 1.09615 42.0488 0.962033 34.4915C0.57092 31.0624 0.628025 26.0038 3.16289 20.1635C5.75342 14.1951 10.8133 7.68402 20.0387 1.35805ZM59.0632 1.35805C60.9789 0.0443802 63.6967 0.39935 65.1337 2.15088C66.5707 3.90246 66.1822 6.38732 64.2665 7.70103C57.4849 12.3512 53.5959 16.8723 51.3758 20.8216C52.5856 20.5378 53.8539 20.3867 55.1608 20.3867C63.5424 20.3867 70.337 26.5989 70.337 34.262C70.337 41.9251 63.5424 48.1373 55.1608 48.1373C46.8628 48.1373 40.1207 42.0488 39.9867 34.4915C39.5956 31.0624 39.6524 26.0038 42.1873 20.1635C44.7781 14.1951 49.8378 7.68402 59.0632 1.35805Z" fill="#0136A4"/>
</svg>
