<svg width="29" height="19" viewBox="0 0 29 19" fill="none" xmlns="http://www.w3.org/2000/svg">
<path fill-rule="evenodd" clip-rule="evenodd" d="M17.9389 3.25403C17.549 2.32793 17.3348 1.49927 17.3025 0.983033L18.7996 0.889465C18.8172 1.17022 18.9641 1.82348 19.3214 2.67194C19.6717 3.50409 20.204 4.47456 20.9501 5.39555C22.4333 7.22638 24.7489 8.85357 28.2127 8.85357V9.15217V10.3536V10.6522C28.2125 10.6522 28.2123 10.6522 28.2121 10.6522V10.7733H26.6244C24.0233 11.1826 22.194 12.5748 20.9501 14.1102C20.204 15.0312 19.6717 16.0016 19.3214 16.8338C18.9641 17.6823 18.8172 18.3355 18.7996 18.6163L17.3025 18.5227C17.3348 18.0065 17.549 17.1778 17.9389 16.2517C18.3357 15.3093 18.9367 14.2126 19.7846 13.166C20.4907 12.2944 21.3702 11.4562 22.4431 10.7733H0.865234V9.27327H23.4031C21.883 8.52231 20.6909 7.45858 19.7846 6.33977C18.9367 5.29317 18.3357 4.19644 17.9389 3.25403Z" fill="white"/>
</svg>
