<svg width="263" height="263" viewBox="0 0 263 263" fill="none" xmlns="http://www.w3.org/2000/svg">
<path d="M164.375 16.4375H263V263H0V4.75146L164.375 169.126V16.4375ZM16.4375 246.562H218.439L16.4375 44.561V246.562ZM225.374 230.125L241.811 246.562H246.562V32.875H180.812V49.3125H213.688V65.75H180.812V82.1875H213.688V98.625H180.812V115.062H230.125V131.5H180.812V147.938H213.688V164.375H180.812V180.812H213.688V197.25H192.499L208.936 213.688H230.125V230.125H225.374ZM49.3125 136.251L126.749 213.688H49.3125V136.251ZM65.75 176.061V197.25H86.939L65.75 176.061Z" fill="url(#paint0_linear_452_1361)"/>
<defs>
<linearGradient id="paint0_linear_452_1361" x1="-1.62835e-08" y1="150.14" x2="263" y2="150.14" gradientUnits="userSpaceOnUse">
<stop stop-color="#0040B9"/>
<stop offset="1" stop-color="#002481"/>
</linearGradient>
</defs>
</svg>
