<svg width="50" height="51" viewBox="0 0 50 51" fill="none" xmlns="http://www.w3.org/2000/svg">
<mask id="path-1-inside-1_167_835" fill="white">
<path fill-rule="evenodd" clip-rule="evenodd" d="M30.625 0.777832H19.375V12.3679L11.08 4.07288L3.125 12.0278L11.25 20.1528H0V31.4028H10.9651L2.93971 39.4282L10.8947 47.3832L19.375 38.9028V50.7778H30.625V39.5278L38.4803 47.3832L46.4353 39.4282L38.4099 31.4028H50V20.1528H38.125L46.25 12.0278L38.295 4.07288L30.625 11.7429V0.777832Z"/>
</mask>
<path d="M19.375 0.777832V-0.222168H18.375V0.777832H19.375ZM30.625 0.777832H31.625V-0.222168H30.625V0.777832ZM19.375 12.3679L18.6679 13.075L20.375 14.7821V12.3679H19.375ZM11.08 4.07288L11.7871 3.36577L11.08 2.65867L10.3728 3.36577L11.08 4.07288ZM3.125 12.0278L2.41789 11.3207L1.71079 12.0278L2.41789 12.7349L3.125 12.0278ZM11.25 20.1528V21.1528H13.6642L11.9571 19.4457L11.25 20.1528ZM0 20.1528V19.1528H-1V20.1528H0ZM0 31.4028H-1V32.4028H0V31.4028ZM10.9651 31.4028L11.6722 32.1099L13.3793 30.4028H10.9651V31.4028ZM2.93971 39.4282L2.2326 38.7211L1.5255 39.4282L2.2326 40.1353L2.93971 39.4282ZM10.8947 47.3832L10.1876 48.0903L10.8947 48.7974L11.6018 48.0903L10.8947 47.3832ZM19.375 38.9028H20.375V36.4886L18.6679 38.1957L19.375 38.9028ZM19.375 50.7778H18.375V51.7778H19.375V50.7778ZM30.625 50.7778V51.7778H31.625V50.7778H30.625ZM30.625 39.5278L31.3321 38.8207L29.625 37.1136V39.5278H30.625ZM38.4803 47.3832L37.7732 48.0903L38.4803 48.7974L39.1874 48.0903L38.4803 47.3832ZM46.4353 39.4282L47.1424 40.1353L47.8495 39.4282L47.1424 38.7211L46.4353 39.4282ZM38.4099 31.4028V30.4028H35.9957L37.7028 32.1099L38.4099 31.4028ZM50 31.4028V32.4028H51V31.4028H50ZM50 20.1528H51V19.1528H50V20.1528ZM38.125 20.1528L37.4179 19.4457L35.7108 21.1528H38.125V20.1528ZM46.25 12.0278L46.9571 12.7349L47.6642 12.0278L46.9571 11.3207L46.25 12.0278ZM38.295 4.07288L39.0022 3.36577L38.295 2.65867L37.5879 3.36577L38.295 4.07288ZM30.625 11.7429H29.625V14.1571L31.3321 12.45L30.625 11.7429ZM19.375 1.77783H30.625V-0.222168H19.375V1.77783ZM20.375 12.3679V0.777832H18.375V12.3679H20.375ZM10.3728 4.77999L18.6679 13.075L20.0821 11.6608L11.7871 3.36577L10.3728 4.77999ZM3.83211 12.7349L11.7871 4.77999L10.3728 3.36577L2.41789 11.3207L3.83211 12.7349ZM11.9571 19.4457L3.83211 11.3207L2.41789 12.7349L10.5429 20.8599L11.9571 19.4457ZM0 21.1528H11.25V19.1528H0V21.1528ZM1 31.4028V20.1528H-1V31.4028H1ZM10.9651 30.4028H0V32.4028H10.9651V30.4028ZM10.258 30.6957L2.2326 38.7211L3.64682 40.1353L11.6722 32.1099L10.258 30.6957ZM2.2326 40.1353L10.1876 48.0903L11.6018 46.6761L3.64682 38.7211L2.2326 40.1353ZM11.6018 48.0903L20.0821 39.6099L18.6679 38.1957L10.1876 46.6761L11.6018 48.0903ZM20.375 50.7778V38.9028H18.375V50.7778H20.375ZM30.625 49.7778H19.375V51.7778H30.625V49.7778ZM29.625 39.5278V50.7778H31.625V39.5278H29.625ZM39.1874 46.6761L31.3321 38.8207L29.9179 40.2349L37.7732 48.0903L39.1874 46.6761ZM45.7282 38.7211L37.7732 46.6761L39.1874 48.0903L47.1424 40.1353L45.7282 38.7211ZM37.7028 32.1099L45.7282 40.1353L47.1424 38.7211L39.117 30.6957L37.7028 32.1099ZM50 30.4028H38.4099V32.4028H50V30.4028ZM49 20.1528V31.4028H51V20.1528H49ZM38.125 21.1528H50V19.1528H38.125V21.1528ZM38.8321 20.8599L46.9571 12.7349L45.5429 11.3207L37.4179 19.4457L38.8321 20.8599ZM46.9571 11.3207L39.0022 3.36577L37.5879 4.77999L45.5429 12.7349L46.9571 11.3207ZM37.5879 3.36577L29.9179 11.0358L31.3321 12.45L39.0022 4.77999L37.5879 3.36577ZM29.625 0.777832V11.7429H31.625V0.777832H29.625Z" fill="#0D093E" mask="url(#path-1-inside-1_167_835)"/>
</svg>
