<svg width="204" height="183" viewBox="0 0 204 183" fill="none" xmlns="http://www.w3.org/2000/svg">
<path d="M101.96 73.6777C111.675 73.6777 119.599 81.6011 119.599 91.5052C119.599 100.938 111.675 108.955 101.96 108.955C92.2445 108.955 84.3212 100.938 84.3212 91.5052C84.3212 81.6011 92.2445 73.6777 101.96 73.6777ZM58.2875 166.965C64.2299 170.55 77.2468 165.079 92.2445 150.93C87.3396 145.365 82.529 139.328 78.0014 133.008C70.4009 132.275 62.8444 131.142 55.3634 129.613C50.5528 149.798 52.345 163.664 58.2875 166.965ZM64.9845 112.823L62.2491 108.012C61.2115 110.747 60.174 113.483 59.5137 116.124C62.0605 116.69 64.8902 117.162 67.8143 117.633L64.9845 112.823ZM126.673 105.654L134.313 91.5052L126.673 77.3564C123.843 72.3572 120.825 67.9239 118.09 63.4906C112.996 63.2077 107.619 63.2077 101.96 63.2077C96.3005 63.2077 90.9239 63.2077 85.8304 63.4906C83.095 67.9239 80.0766 72.3572 77.2468 77.3564L69.6065 91.5052L77.2468 105.654C80.0766 110.653 83.095 115.086 85.8304 119.52C90.9239 119.803 96.3005 119.803 101.96 119.803C107.619 119.803 112.996 119.803 118.09 119.52C120.825 115.086 123.843 110.653 126.673 105.654ZM101.96 42.2675C100.168 44.3427 98.2813 46.5121 96.3948 49.0589H107.525C105.639 46.5121 103.752 44.3427 101.96 42.2675ZM101.96 140.743C103.752 138.668 105.639 136.498 107.525 133.951H96.3948C98.2813 136.498 100.168 138.668 101.96 140.743ZM145.538 16.0451C139.69 12.4608 126.673 17.9316 111.675 32.0804C116.58 37.6456 121.391 43.6824 125.919 50.0022C133.653 50.7568 141.294 51.8887 148.557 53.3979C153.367 33.2123 151.575 19.3465 145.538 16.0451ZM138.935 70.1877L141.671 74.9983C142.708 72.2629 143.746 69.5274 144.406 66.8863C141.859 66.3204 139.03 65.8488 136.106 65.3771L138.935 70.1877ZM152.613 3.68857C166.478 11.6119 167.987 32.4577 162.139 56.7936C186.098 63.8679 203.359 75.5642 203.359 91.5052C203.359 107.446 186.098 119.142 162.139 126.217C167.987 150.553 166.478 171.398 152.613 179.322C138.841 187.245 120.07 178.19 101.96 160.928C83.8496 178.19 65.0789 187.245 51.2131 179.322C37.4416 171.398 35.9324 150.553 41.7806 126.217C17.822 119.142 0.560547 107.446 0.560547 91.5052C0.560547 75.5642 17.822 63.8679 41.7806 56.7936C35.9324 32.4577 37.4416 11.6119 51.2131 3.68857C65.0789 -4.23473 83.8496 4.82047 101.96 22.082C120.07 4.82047 138.841 -4.23473 152.613 3.68857ZM149.877 91.5052C153.084 98.5796 155.914 105.654 158.272 112.823C178.08 106.88 189.211 98.3909 189.211 91.5052C189.211 84.6195 178.08 76.1302 158.272 70.1877C155.914 77.3564 153.084 84.4308 149.877 91.5052ZM54.0428 91.5052C50.8358 84.4308 48.006 77.3564 45.6479 70.1877C25.8397 76.1302 14.7093 84.6195 14.7093 91.5052C14.7093 98.3909 25.8397 106.88 45.6479 112.823C48.006 105.654 50.8358 98.5796 54.0428 91.5052ZM138.935 112.823L136.106 117.633C139.03 117.162 141.859 116.69 144.406 116.124C143.746 113.483 142.708 110.747 141.671 108.012L138.935 112.823ZM111.675 150.93C126.673 165.079 139.69 170.55 145.538 166.965C151.575 163.664 153.367 149.798 148.557 129.613C141.294 131.122 133.653 132.254 125.919 133.008C121.391 139.328 116.58 145.365 111.675 150.93ZM64.9845 70.1877L67.8143 65.3771C64.8902 65.8488 62.0605 66.3204 59.5137 66.8863C60.174 69.5274 61.2115 72.2629 62.2491 74.9983L64.9845 70.1877ZM92.2445 32.0804C77.2468 17.9316 64.2299 12.4608 58.2875 16.0451C52.345 19.3465 50.5528 33.2123 55.3634 53.3979C62.8444 51.8684 70.4009 50.7349 78.0014 50.0022C82.529 43.6824 87.3396 37.6456 92.2445 32.0804Z" fill="url(#paint0_linear_451_1346)"/>
<defs>
<linearGradient id="paint0_linear_451_1346" x1="0.560547" y1="102.931" x2="203.359" y2="102.931" gradientUnits="userSpaceOnUse">
<stop stop-color="#0040B9"/>
<stop offset="1" stop-color="#002481"/>
</linearGradient>
</defs>
</svg>
