<svg width="101" height="101" viewBox="0 0 101 101" fill="none" xmlns="http://www.w3.org/2000/svg">
<path d="M82.0625 6.3125H94.6875V18.9375H82.0625V6.3125ZM82.0625 25.25H94.6875V37.875H82.0625V25.25ZM63.125 6.3125H75.75V18.9375H63.125V6.3125ZM63.125 25.25H75.75V37.875H63.125V25.25Z" fill="url(#paint0_linear_451_1348)"/>
<path d="M88.375 50.5V69.4375H12.625V18.9375H50.5V12.625H12.625C10.9508 12.625 9.34521 13.2901 8.16139 14.4739C6.97756 15.6577 6.3125 17.2633 6.3125 18.9375V69.4375C6.3125 71.1117 6.97756 72.7173 8.16139 73.9011C9.34521 75.0849 10.9508 75.75 12.625 75.75H37.875V88.375H25.25V94.6875H75.75V88.375H63.125V75.75H88.375C90.0492 75.75 91.6548 75.0849 92.8386 73.9011C94.0224 72.7173 94.6875 71.1117 94.6875 69.4375V50.5H88.375ZM56.8125 88.375H44.1875V75.75H56.8125V88.375Z" fill="url(#paint1_linear_451_1348)"/>
<defs>
<linearGradient id="paint0_linear_451_1348" x1="63.125" y1="24.0815" x2="94.6875" y2="24.0815" gradientUnits="userSpaceOnUse">
<stop stop-color="#0040B9"/>
<stop offset="1" stop-color="#002481"/>
</linearGradient>
<linearGradient id="paint1_linear_451_1348" x1="6.3125" y1="58.8245" x2="94.6875" y2="58.8245" gradientUnits="userSpaceOnUse">
<stop stop-color="#0040B9"/>
<stop offset="1" stop-color="#002481"/>
</linearGradient>
</defs>
</svg>
