<svg width="91" height="91" viewBox="0 0 91 91" fill="none" xmlns="http://www.w3.org/2000/svg">
<rect x="0.0888672" y="0.875977" width="90.0819" height="90.0819" rx="6" fill="#023AA2"/>
<path d="M63.7986 32.1242L45.4031 21.1233C44.8918 20.8176 44.2551 20.8176 43.7439 21.1233L25.3482 32.1242C24.8566 32.4183 24.5552 32.951 24.5552 33.5261V39.8059C24.5552 53.0326 32.1575 65.1133 43.9876 69.7174C44.3642 69.864 44.7823 69.8642 45.1593 69.7174C56.9606 65.1247 64.5916 53.0703 64.5916 39.8059V33.5261C64.5917 32.9509 64.2904 32.4183 63.7986 32.1242ZM52.59 41.6955L42.4201 51.9185C41.7864 52.5555 40.7591 52.5555 40.1254 51.9185L36.5562 48.3308C35.9225 47.6939 35.9225 46.6611 36.5562 46.0241C37.1899 45.3872 38.2174 45.3872 38.851 46.0241L41.2727 48.4584L50.2952 39.3887C50.9288 38.7518 51.9563 38.7518 52.59 39.3887C53.2238 40.0258 53.2238 41.0586 52.59 41.6955Z" fill="white"/>
</svg>
